HIERARCHY
ROOT root
{
	OFFSET 0.000000 0.000000 0.000000
	CHANNELS 6 Xposition Yposition Zposition Zrotation Yrotation Xrotation
	JOINT lhip
	{
		OFFSET 0.058581 -0.082280 -0.017664
		CHANNELS 3 Zrotation Yrotation Xrotation
		JOINT lknee
		{
			OFFSET 0.043451 -0.386469 0.008037
			CHANNELS 3 Zrotation Yrotation Xrotation
			JOINT lankle
			{
				OFFSET -0.014790 -0.426874 -0.037428
				CHANNELS 3 Zrotation Yrotation Xrotation
				JOINT ltoe
				{
					OFFSET 0.041054 -0.060286 0.122042
					CHANNELS 3 Zrotation Yrotation Xrotation
					End Site
					{
						OFFSET 0.000000 0.000000 0.000000
					}
				}
			}
		}
	}
	JOINT rhip
	{
		OFFSET -0.060310 -0.090513 -0.013543
		CHANNELS 3 Zrotation Yrotation Xrotation
		JOINT rknee
		{
			OFFSET -0.043257 -0.383688 -0.004843
			CHANNELS 3 Zrotation Yrotation Xrotation
			JOINT rankle
			{
				OFFSET 0.019056 -0.420046 -0.034562
				CHANNELS 3 Zrotation Yrotation Xrotation
				JOINT rtoe
				{
					OFFSET -0.034840 -0.062106 0.130323
					CHANNELS 3 Zrotation Yrotation Xrotation
					End Site
					{
						OFFSET 0.000000 0.000000 0.000000
					}
				}
			}
		}
	}
	JOINT lowerback
	{
		OFFSET 0.004439 0.124404 -0.038385
		CHANNELS 3 Zrotation Yrotation Xrotation
		JOINT upperback
		{
			OFFSET 0.004488 0.137956 0.026820
			CHANNELS 3 Zrotation Yrotation Xrotation
			JOINT chest
			{
				OFFSET -0.002265 0.056032 0.002855
				CHANNELS 3 Zrotation Yrotation Xrotation
				JOINT lowerneck
				{
					OFFSET -0.013390 0.211636 -0.033468
					CHANNELS 3 Zrotation Yrotation Xrotation
					JOINT upperneck
					{
						OFFSET 0.010113 0.088937 0.050410
						CHANNELS 3 Zrotation Yrotation Xrotation
						End Site
						{
							OFFSET 0.000000 0.000000 0.000000
						}
					}
				}
				JOINT lclavicle
				{
					OFFSET 0.071702 0.114000 -0.018898
					CHANNELS 3 Zrotation Yrotation Xrotation
					JOINT lshoulder
					{
						OFFSET 0.122921 0.045205 -0.019046
						CHANNELS 3 Zrotation Yrotation Xrotation
						JOINT lelbow
						{
							OFFSET 0.255332 -0.015649 -0.022946
							CHANNELS 3 Zrotation Yrotation Xrotation
							JOINT lwrist
							{
								OFFSET 0.265709 0.012698 -0.007375
								CHANNELS 3 Zrotation Yrotation Xrotation
								End Site
								{
									OFFSET 0.000000 0.000000 0.000000
								}
							}
						}
					}
				}
				JOINT rclavicle
				{
					OFFSET -0.082954 0.112472 -0.023707
					CHANNELS 3 Zrotation Yrotation Xrotation
					JOINT rshoulder
					{
						OFFSET -0.113228 0.046853 -0.008472
						CHANNELS 3 Zrotation Yrotation Xrotation
						JOINT relbow
						{
							OFFSET -0.260127 -0.014369 -0.031269
							CHANNELS 3 Zrotation Yrotation Xrotation
							JOINT rwrist
							{
								OFFSET -0.269108 0.006794 -0.006027
								CHANNELS 3 Zrotation Yrotation Xrotation
								End Site
								{
									OFFSET 0.000000 0.000000 0.000000
								}
							}
						}
					}
				}
			}
		}
	}
}
MOTION
Frames: 7
Frame Time: 0.033333
0.361324 0.853553 0.954608 29.903271 -0.679198 89.788942 11.938469 6.131060 -29.948124 -14.097699 -0.535891 51.845218 -6.807601 2.588670 -6.659040 0.000000 -0.000000 0.000000 -10.001432 -3.565954 -17.675682 -2.013760 0.615042 42.911252 -0.471172 -14.451131 -20.947445 0.000000 -0.000000 0.000000 -2.158945 1.992278 37.506297 1.298077 -3.479324 8.015867 1.704964 -4.156738 3.752923 -6.625850 17.408471 -14.399602 -9.403930 15.117670 -17.468679 -30.178670 11.577305 7.879260 -41.768468 22.245906 4.934229 -11.387710 -20.971698 47.763884 -18.671499 1.717269 19.655969 30.388917 -7.819028 6.198738 45.960019 -15.577295 6.327554 -2.619107 8.681308 16.546917 18.529787 -3.324369 18.937640 
0.358424 0.858417 0.938108 29.943553 -0.626405 88.703273 14.714189 3.762574 -33.609509 -7.327226 1.220324 56.114203 -4.518389 9.371821 -8.183101 0.000000 -0.000000 0.000000 -12.092253 -3.891367 -16.828785 -1.362999 0.551771 47.526358 -0.947119 -17.575269 -20.399263 0.000000 -0.000000 0.000000 -2.148134 2.685327 38.660281 0.811824 -4.222061 11.515081 2.214281 -4.464228 1.045645 -7.095744 14.756633 -15.731267 -7.226120 17.390329 -18.790273 -30.374654 9.523473 6.528650 -40.791538 27.297769 1.130840 -14.228874 -21.642200 50.041090 -21.285796 2.495452 21.525741 30.902473 -4.593403 5.357529 47.112027 -20.007107 4.225478 -3.804623 8.970454 10.318486 20.181272 -6.985931 27.035719 
0.360059 0.861023 0.911115 28.141161 -0.942749 87.035536 16.999149 1.257656 -30.799961 -10.422630 -9.685150 50.831240 -4.470323 7.990466 -8.377412 0.000000 -0.000000 0.000000 -15.272316 -4.158477 -15.717143 -3.178946 1.808044 51.000397 -1.226680 -20.579504 -19.935280 0.000000 -0.000000 0.000000 -2.112068 3.185691 39.006754 0.103310 -3.321239 13.833255 1.730336 -4.210659 0.640088 -7.451249 14.408255 -15.977395 -7.200451 15.750375 -20.279168 -30.847047 9.763846 7.161726 -39.215897 28.207647 2.110899 -14.909035 -21.841029 52.481957 -19.798248 1.990248 20.549560 31.751231 -4.097283 5.450942 47.195997 -21.982544 3.860455 -3.797034 8.259331 9.937829 19.523391 -7.022659 27.359732 
0.365137 0.862388 0.874204 25.165067 -1.564934 85.146400 18.684753 -1.349628 -24.851143 -14.224900 -20.288232 49.230797 -6.759562 4.592695 -20.309358 0.000000 -0.000000 0.000000 -19.078098 -3.361556 -15.072137 -4.514645 4.805949 53.612901 0.321104 -22.937721 -18.535929 0.000000 -0.000000 0.000000 -1.578603 2.848823 38.291897 -0.862954 -2.170564 15.498379 0.585037 -3.709993 1.245296 -8.886791 15.214792 -16.172697 -7.327889 13.996931 -18.399001 -30.004596 10.471230 7.486310 -39.446898 29.297219 1.591519 -15.369961 -22.119580 54.473279 -20.112136 1.045924 19.500979 30.785734 -3.817576 6.283591 47.921962 -23.868141 3.877418 -3.522475 8.161879 11.519708 19.293437 -6.627127 27.757950 
0.361564 0.868289 0.839611 23.441621 -2.239872 84.302461 18.675001 0.536337 -26.367763 -13.403896 -14.971643 53.153472 -3.941978 7.069084 -26.222817 0.000000 -0.000000 0.000000 -21.755451 -2.899473 -15.246785 -5.177349 8.683123 54.316819 3.478830 -23.392657 -15.250879 0.000000 -0.000000 0.000000 -1.589740 2.984313 40.286011 -0.997205 -1.549424 12.432200 0.641393 -3.367568 2.786351 -9.798937 13.570467 -16.646005 -7.820260 14.667904 -18.214034 -29.874115 11.254167 7.911861 -39.461643 29.803147 1.064655 -16.040464 -20.941646 56.627737 -17.603297 0.455139 20.774474 31.506178 -4.786863 6.406549 46.087805 -24.608617 4.215023 -3.420639 6.929733 10.682672 19.132081 -7.627342 30.550915 
0.344724 0.877300 0.816755 23.286619 -3.387435 82.811232 17.951601 2.648064 -29.064207 -13.141442 -14.250679 58.442414 -6.274022 5.189004 -26.398176 0.000000 -0.000000 0.000000 -22.430652 -3.399729 -14.524840 -5.610317 13.325970 56.170120 7.984701 -20.212753 -21.144800 0.000000 -0.000000 0.000000 -1.423171 3.568501 43.103684 -1.190867 -2.500423 14.539309 1.067502 -3.426052 1.595478 -10.763798 13.025255 -18.455110 -8.096765 13.947088 -20.747374 -30.733477 9.339344 7.676037 -38.808908 30.427767 -1.095445 -15.797719 -20.844214 52.976673 -19.182741 0.343765 21.046330 32.857068 -2.687121 6.225674 45.897628 -25.276399 3.700353 -2.768562 7.543690 9.378897 18.567247 -8.419721 33.722058 
0.325449 0.882437 0.800849 22.119155 -4.173456 81.424185 18.900079 2.109730 -27.102771 -14.490079 -16.304942 58.340524 -6.425247 4.838525 -29.154592 0.000000 -0.000000 0.000000 -22.610241 -2.520860 -15.088572 -5.214581 14.380522 59.587611 10.249127 -19.171216 -26.105415 0.000000 -0.000000 0.000000 -1.192903 2.837915 44.998194 -1.617422 -2.224323 17.173280 0.509677 -3.441739 -0.058320 -11.712549 13.087225 -18.556015 -8.673710 13.018327 -22.771861 -32.099790 8.029608 8.029943 -37.996432 30.389334 -0.376314 -16.067040 -20.984323 52.768185 -17.283807 0.764181 21.691522 33.335044 -1.205989 6.523730 45.985901 -25.061058 3.935199 -2.247730 9.036847 10.126585 16.299200 -8.135847 36.156475 
